<?xml version="1.0" encoding="utf-8"?>
<!-- Generator: Adobe Illustrator 21.0.2, SVG Export Plug-In . SVG Version: 6.00 Build 0)  -->
<svg version="1.1" id="Layer_1" xmlns="http://www.w3.org/2000/svg" xmlns:xlink="http://www.w3.org/1999/xlink" x="0px" y="0px"
	 viewBox="0 0 138.3 26.2" style="enable-background:new 0 0 138.3 26.2;" xml:space="preserve">
<style type="text/css">
	.st0{fill:#262729;stroke:#262729;stroke-width:0.25;stroke-linejoin:round;}
	.st1{fill:#29615E;}
	.st2{fill:#42AAAA;}
	.st3{fill:#4CC3C8;}
	.st4{fill:#307877;}
</style>
<title>logo3</title>
<path class="st0" d="M49.3,10.3L49.3,10.3l-3,7.4l-3-7.4l0,0l-1.5,7.2h-0.6l1.9-8.9l3.2,7.9l3.2-7.9l1.9,8.9h-0.6L49.3,10.3z"/>
<path class="st0" d="M62.7,13.1c0.1,2.5-1.9,4.5-4.4,4.6c-2.5,0.1-4.5-1.9-4.6-4.4c-0.1-2.5,1.9-4.5,4.4-4.6c0,0,0.1,0,0.1,0
	C60.6,8.7,62.6,10.7,62.7,13.1z M54.3,13.1c0,2.2,1.7,3.9,3.9,3.9c2.2,0,3.9-1.7,3.9-3.9s-1.7-3.9-3.9-3.9
	C56.1,9.3,54.4,11,54.3,13.1z"/>
<path class="st0" d="M73.8,17.7L66.5,10v7.4h-0.6V8.7l7.3,7.7V8.8h0.5L73.8,17.7L73.8,17.7z"/>
<path class="st0" d="M78.1,17.4h-0.6V8.8H78L78.1,17.4L78.1,17.4z"/>
<path class="st0" d="M88.7,10.5c-0.7-0.9-1.8-1.4-2.9-1.4c-2.2,0.1-3.9,1.8-3.9,4c0,1,0.5,2,1.2,2.7c0.8,0.7,1.7,1.2,2.8,1.2
	c1.1-0.1,2.1-0.5,2.8-1.3v0.8c-1.9,1.5-4.7,1.3-6.2-0.6s-1.3-4.7,0.6-6.2c0.8-0.6,1.8-1,2.8-1c1.1,0,2.1,0.4,2.9,1.1v0.8L88.7,10.5z
	"/>
<path class="st0" d="M93.1,14.6l-1.2,2.8h-0.5L95,8.5l3.6,8.9H98l-1.2-2.8H93.1z M95,9.9l-1.7,4.2h3.4L95,9.9z"/>
<path class="st0" d="M111,10.2c-0.4-0.6-1.1-1-1.8-1c-0.9,0-1.6,0.7-1.6,1.6c0,0.9,0.9,1.3,1.6,1.6l1.7,0.9c0.6,0.3,1,1,1,1.7
	c-0.1,1.4-1.3,2.6-2.7,2.5c0,0,0,0,0,0c-1.2,0-2.2-0.7-2.6-1.8l0.5-0.2c0.3,0.9,1.1,1.6,2.1,1.6c1.1,0,2-0.9,2.1-2
	c0-1-1-1.4-1.7-1.8l-1.6-0.8c-0.6-0.3-0.9-0.9-0.9-1.5c-0.1-1.2,0.8-2.1,2-2.2c0.1,0,0.1,0,0.2,0c0.9,0,1.7,0.5,2.1,1.2L111,10.2z"
	/>
<path class="st0" d="M115.7,17.4h-0.5V8.8h0.5V17.4z"/>
<path class="st0" d="M120,16.9h2.2v0.5h-2.7V8.8h0.5V16.9z"/>
<path class="st0" d="M126.9,16.2L126.9,16.2l2.6-7.4h0.5l-3.1,8.9l-3.1-8.9h0.5L126.9,16.2z"/>
<path class="st0" d="M132.7,14.6l-1.2,2.8h-0.6l3.6-8.9l3.6,8.9h-0.5l-1.2-2.8h-3.8H132.7z M134.6,9.9l-1.7,4.2h3.4L134.6,9.9z"/>
<polygon class="st1" points="18.8,12.9 26.8,0.4 32.2,26.2 "/>
<polygon class="st2" points="0,26.2 5.5,0.4 24.6,21 "/>
<polygon class="st3" points="2.1,22.3 5.6,0 24.6,21 "/>
<polygon class="st4" points="21.2,14.2 26.8,0.4 32.2,26.2 "/>
</svg>
